# xmcd
#
# Track frame offsets: 
#        150
#        11826
#        25501
#        40714
#        52049
#        64842
#        75274
#        89137
#        103764
#        116005
#        127611
#        142600
#
# Disc length: 2083 seconds
#
# Revision: 0
# Processed by: cddbd v1.5.2PL0 Copyright (c) Steve Scherf et al.
# Submitted via: ExactAudioCopy v1.3
#
DISCID=8e08210c
DTITLE=Lacy J. Dalton - Country Legend
DYEAR=2011
DGENRE=Country
TTITLE0=Hillbilly Girl With The Blues
TTITLE1=16th Avenue
TTITLE2=StopTakin' It Easya
TTITLE3=Here Comes Santa Claus
TTITLE4=Crazy Blue Eyes
TTITLE5=Winter Wonderland
TTITLE6=Tennessee Waltz
TTITLE7=Working Class Man
TTITLE8=Dream Baby (How Long Must I Dream)
TTITLE9=Hard Times
TTITLE10=Everybody Makes Mistakes
TTITLE11=Whisper
EXTD=
EXTT0=
EXTT1=
EXTT2=
EXTT3=
EXTT4=
EXTT5=
EXTT6=
EXTT7=
EXTT8=
EXTT9=
EXTT10=
EXTT11=
PLAYORDER=
